<?xml version="1.0" encoding="UTF-8" standalone="no"?>
<svg
   xmlns:osb="http://www.openswatchbook.org/uri/2009/osb"
   xmlns:dc="http://purl.org/dc/elements/1.1/"
   xmlns:cc="http://creativecommons.org/ns#"
   xmlns:rdf="http://www.w3.org/1999/02/22-rdf-syntax-ns#"
   xmlns:svg="http://www.w3.org/2000/svg"
   xmlns="http://www.w3.org/2000/svg"
   xmlns:sodipodi="http://sodipodi.sourceforge.net/DTD/sodipodi-0.dtd"
   xmlns:inkscape="http://www.inkscape.org/namespaces/inkscape"
   width="24"
   height="24"
   viewBox="0 0 24 24"
   stroke-width="2"
   stroke="currentColor"
   fill="none"
   stroke-linecap="round"
   stroke-linejoin="round"
   version="1.1"
   id="svg16"
   sodipodi:docname="sub-cube2.svg"
   inkscape:version="1.0.2 (e86c8708, 2021-01-15)">
  <metadata
     id="metadata22">
    <rdf:RDF>
      <cc:Work
         rdf:about="">
        <dc:format>image/svg+xml</dc:format>
        <dc:type
           rdf:resource="http://purl.org/dc/dcmitype/StillImage" />
        <dc:title />
      </cc:Work>
    </rdf:RDF>
  </metadata>
  <defs
     id="defs20">
    <linearGradient
       id="linearGradient896"
       osb:paint="solid">
      <stop
         style="stop-color:#000000;stop-opacity:1;"
         offset="0"
         id="stop894" />
    </linearGradient>
  </defs>
  <sodipodi:namedview
     pagecolor="#ffffff"
     bordercolor="#666666"
     borderopacity="1"
     objecttolerance="10"
     gridtolerance="10"
     guidetolerance="10"
     inkscape:pageopacity="0"
     inkscape:pageshadow="2"
     inkscape:window-width="1222"
     inkscape:window-height="836"
     id="namedview18"
     showgrid="false"
     inkscape:zoom="26.202672"
     inkscape:cx="11.46033"
     inkscape:cy="11.405643"
     inkscape:window-x="109"
     inkscape:window-y="23"
     inkscape:window-maximized="0"
     inkscape:current-layer="svg16"
     inkscape:document-rotation="0" />
  <path
     style="fill:#eeeeee;fill-opacity:1;stroke:#eeeeee;stroke-width:0.0732824;stroke-opacity:1"
     d="M 13.605459,7.1532914 C 13.194468,7.014778 12.864543,6.695875 12.711194,6.2889 c -0.115099,-0.305461 -0.09215,-0.783 0.05208,-1.083838 0.192491,-0.4014861 0.598892,-0.7110201 1.043392,-0.7946961 0.217352,-0.04092 4.307561,-0.04388 7.149198,-0.0052 l 1.703817,0.02321 0.21125,0.10358 c 0.573862,0.281375 0.918154,0.9316861 0.801691,1.5142611 -0.09566,0.478493 -0.379135,0.849066 -0.803179,1.0499444 l -0.246403,0.116726 -4.396946,0.0079 c -4.351587,0.0078 -4.399256,0.0071 -4.62064,-0.0675 z"
     id="path5408-6-2-8-9-3-73" />
  <path
     style="fill:#e6e6e6;fill-opacity:1;stroke:#e6e6e6;stroke-width:0.0732824;stroke-opacity:1"
     d="m 11.697257,9.2141492 c -0.410991,-0.138513 -0.740916,-0.457416 -0.894265,-0.864391 -0.115099,-0.305461 -0.09215,-0.783 0.05208,-1.083838 0.192491,-0.401486 0.598892,-0.71102 1.043392,-0.794696 0.217352,-0.04092 4.307561,-0.04388 7.149198,-0.0052 l 1.703817,0.02321 0.21125,0.10358 c 0.573862,0.281375 0.918154,0.931686 0.801691,1.514261 -0.09566,0.478493 -0.379135,0.849066 -0.803179,1.049944 l -0.246403,0.116726 -4.396946,0.0079 c -4.351587,0.0078 -4.399256,0.0071 -4.62064,-0.0675 z"
     id="path5408-6-2-8-9-3-8" />
  <path
     style="fill:#d1d1d1;fill-opacity:1;stroke:#d1d1d1;stroke-width:0.0732824;stroke-opacity:1"
     d="m 9.4455781,11.160516 c -0.410991,-0.138513 -0.740916,-0.457416 -0.894265,-0.864391 -0.115099,-0.3054609 -0.09215,-0.7829999 0.05208,-1.0838379 0.192491,-0.401486 0.598892,-0.71102 1.043392,-0.794696 0.217352,-0.04092 4.3075609,-0.04388 7.1491979,-0.0052 l 1.703817,0.02321 0.21125,0.10358 c 0.573862,0.281375 0.918154,0.931686 0.801691,1.5142609 -0.09566,0.478493 -0.379135,0.849066 -0.803179,1.049944 l -0.246403,0.116726 -4.396946,0.0079 c -4.3515869,0.0078 -4.3992559,0.0071 -4.6206399,-0.0675 z"
     id="path5408-6-2-8-9-3-2" />
  <path
     style="fill:#bfbfbf;fill-opacity:1;stroke:#bfbfbf;stroke-width:0.0732824;stroke-opacity:1"
     d="m 7.4228835,13.259538 c -0.410991,-0.138513 -0.740916,-0.457416 -0.894265,-0.864391 -0.115099,-0.305461 -0.09215,-0.783 0.05208,-1.083838 0.192491,-0.401486 0.598892,-0.71102 1.043392,-0.794696 0.217352,-0.04092 4.3075615,-0.04388 7.1491985,-0.0052 l 1.703817,0.02321 0.21125,0.10358 c 0.573862,0.281375 0.918154,0.931686 0.801691,1.514261 -0.09566,0.478493 -0.379135,0.849066 -0.803179,1.049944 l -0.246403,0.116726 -4.396946,0.0079 c -4.3515875,0.0078 -4.3992565,0.0071 -4.6206405,-0.0675 z"
     id="path5408-6-2-8-9-3-0" />
  <path
     style="fill:#a6a6a6;fill-opacity:1;stroke:#a6a6a6;stroke-width:0.0732824;stroke-opacity:1"
     d="m 5.3238609,15.434889 c -0.410991,-0.138513 -0.740916,-0.457416 -0.894265,-0.864391 -0.115099,-0.305461 -0.09215,-0.783 0.05208,-1.083838 0.192491,-0.401486 0.598892,-0.71102 1.043392,-0.794696 0.217352,-0.04092 4.3075615,-0.04388 7.1491981,-0.0052 l 1.703817,0.02321 0.21125,0.10358 c 0.573861,0.281375 0.918154,0.931686 0.801691,1.514261 -0.09566,0.478493 -0.379136,0.849066 -0.803179,1.049944 l -0.246403,0.116726 -4.3969456,0.0079 c -4.3515875,0.0078 -4.3992565,0.0071 -4.6206405,-0.0675 z"
     id="path5408-6-2-8-9-3-3" />
  <path
     style="fill:#7f7f7f;fill-opacity:1;stroke:#7f7f7f;stroke-width:0.0732824;stroke-opacity:1"
     d="m 3.2248383,17.572076 c -0.410991,-0.138513 -0.740916,-0.457416 -0.894265,-0.864391 -0.115099,-0.305461 -0.09215,-0.783 0.05208,-1.083838 0.192491,-0.401486 0.598892,-0.71102 1.043392,-0.794696 0.217352,-0.04092 4.307561,-0.04388 7.1491977,-0.0052 l 1.703817,0.02321 0.21125,0.10358 c 0.573862,0.281375 0.918154,0.931686 0.801691,1.514261 -0.09566,0.478493 -0.379135,0.849066 -0.803179,1.049944 l -0.246403,0.116726 -4.3969457,0.0079 c -4.351587,0.0078 -4.399256,0.0071 -4.62064,-0.0675 z"
     id="path5408-6-2-8-9-3-7" />
  <path
     style="fill:#000000;fill-opacity:1;stroke:#000000;stroke-width:0.0732824;stroke-opacity:1;opacity:1"
     d="M 1.1369316,19.665691 C 0.72594064,19.527178 0.39601564,19.208275 0.24266664,18.8013 c -0.115099,-0.305461 -0.09215,-0.783 0.05208,-1.083838 0.192491,-0.401486 0.598892,-0.71102 1.04339196,-0.794696 0.217352,-0.04092 4.3075613,-0.04388 7.1491983,-0.0052 l 1.7038171,0.02321 0.21125,0.10358 c 0.573862,0.281375 0.918154,0.931686 0.801691,1.514261 -0.09566,0.478493 -0.379135,0.849066 -0.803179,1.049944 l -0.246403,0.116726 -4.3969461,0.0079 c -4.3515873,0.0078 -4.3992563,0.0071 -4.6206403,-0.0675 z"
     id="path5408-6-2-8-9-3" />
</svg>
